# xmcd CD database file
#
# Track frame offsets:
#	150
#	2455
#	66623
#	108593
#	154022
#
# Disc length: 2537 seconds
#
# Revision: 0
# Processed by: cddbd v1.5.1PL0 Copyright (c) Steve Scherf et al.
# Submitted via: CDex 1.51
#
DISCID=3909e705
DTITLE=Miles Davis - November 5, 1969 - Disc1
DYEAR=1969
DGENRE=Jazz
TTITLE0=Introduction
TTITLE1=Bitches Brew
TTITLE2=Paraphernalia
TTITLE3=Nefertiti
TTITLE4=Masqualero
EXTD=YEAR: 1969
EXTT0=
EXTT1=
EXTT2=
EXTT3=
EXTT4=
PLAYORDER=
